<?xml version="1.0" standalone="no"?>
<!DOCTYPE svg PUBLIC "-//W3C//DTD SVG 1.1//EN"
  "http://www.w3.org/Graphics/SVG/1.1/DTD/svg11.dtd">
<svg version="1.1" xmlns="http://www.w3.org/2000/svg" xmlns:xlink="http://www.w3.org/1999/xlink" width="1792" height="1063" viewBox="-992 -32 1792 1063" id="ccdiagram"><filter id="grayscale"><feColorMatrix type="saturate" values="0"></feColorMatrix></filter><filter id="highlight"><feColorMatrix type="matrix" color-interpolation-filters="sRGB" values="0.20338 0 0 0 0 0 0.58474 0 0 0 0 0 0.97033 0 0 0 0 0 1 0"></feColorMatrix></filter><defs><style type="text/css">@import url('https://fonts.googleapis.com/css?family=Open+Sans:400,700|Inconsolata:400');</style></defs><g><rect x="-992" y="-32" width="1792" height="1063" fill="#ffffff" id="interactionLayer"></rect><g pointer-events="auto"></g><g pointer-events="auto"></g><g pointer-events="auto"></g><g></g><g pointer-events="auto"></g><g></g><g pointer-events="auto"></g><g pointer-events="auto"></g><g pointer-events="none"></g><g pointer-events="auto"><g id="8a51a016-7b27-4efd-b291-59c48022c8c9-9c3d9f36-e7b6-4f92-91d4-4e31251f2d16"><g cursor="cell"><line x1="224" y1="426" x2="374" y2="339" stroke="red" stroke-width="8" opacity="0"></line><line x1="224" y1="426" x2="374" y2="339" stroke="#000000" stroke-width="2" stroke-linecap="round"></line><polygon points="384 333, 358 338, 372 340, 375 348, 384 333" stroke-linejoin="round" fill="#000000" stroke="#000000" stroke-width="1"></polygon></g></g><g id="ac7ca75c-328c-4b9f-84a3-a6d14149d4c8-412648f6-5002-4b2c-8129-eae6b00972a9"><g cursor="cell"><line x1="-416" y1="426" x2="-153" y2="578" stroke="red" stroke-width="8" opacity="0"></line><line x1="-416" y1="426" x2="-153" y2="578" stroke="#000000" stroke-width="2" stroke-linecap="round"></line></g></g><g id="44ff8745-53ee-4a21-a4f9-94f011714a7c-412648f6-5002-4b2c-8129-eae6b00972a9"><g cursor="cell"><line x1="-348" y1="756" x2="-138" y2="635" stroke="red" stroke-width="8" opacity="0"></line><line x1="-348" y1="756" x2="-138" y2="635" stroke="#000000" stroke-width="2" stroke-linecap="round"></line><polygon points="-128 629, -154 634, -140 636, -137 644, -128 629" stroke-linejoin="round" fill="#000000" stroke="#000000" stroke-width="1"></polygon></g></g><g id="412648f6-5002-4b2c-8129-eae6b00972a9-8a51a016-7b27-4efd-b291-59c48022c8c9"><g cursor="cell"><line x1="-72" y1="596" x2="149" y2="469" stroke="red" stroke-width="8" opacity="0"></line><line x1="-72" y1="596" x2="149" y2="469" stroke="#000000" stroke-width="2" stroke-linecap="round"></line><polygon points="159 463, 133 469, 146 470, 149 478, 159 463" stroke-linejoin="round" fill="#000000" stroke="#000000" stroke-width="1"></polygon></g></g></g><g pointer-events="auto"><g opacity="1"><g id="9c3d9f36-e7b6-4f92-91d4-4e31251f2d16" transform="translate(0 0)"><svg x="368" y="229" width="96" height="113.438" viewBox="0 0 25.4 30.014"><g transform="translate(412.599 -86.957)"><path fill="#3c3c3c" d="M-412.332 102.354v4.786l8.289 4.786h8.29l8.288-4.786v-4.786l-8.289-4.786h-8.29z" fill-rule="evenodd"></path><path fill="#090909" d="m-395.754 111.926 8.29-4.786v4.786l-8.29 4.785z" fill-rule="evenodd"></path><path fill="#232323" d="M-404.043 111.926h8.29v4.785h-8.29zm-8.29-4.786v4.786l8.29 4.785v-4.785z" fill-rule="evenodd"></path><path fill="none" stroke="#000" d="m-412.332 107.14 8.289 4.786h8.29l8.288-4.786m-16.578 4.786v4.785m8.29-4.785v4.785" stroke-width=".266"></path><path fill="none" stroke="#000000" d="M-412.332 102.354v9.572l8.289 4.785h8.29l8.288-4.785v-9.572l-8.289-4.786h-8.29z" stroke-width=".532"></path><path fill="#3c3c3c" d="M-412.333 97.178v4.786l8.29 4.786h8.289l8.29-4.786v-4.786l-8.29-4.786h-8.29z" fill-rule="evenodd"></path><path fill="#090909" d="m-395.754 106.75 8.29-4.786v4.786l-8.29 4.786z" fill-rule="evenodd"></path><path fill="#232323" d="M-404.044 106.75h8.29v4.786h-8.29z" fill-rule="evenodd"></path><path fill="#232323" d="M-412.333 101.964v4.786l8.29 4.786v-4.786z" fill-rule="evenodd"></path><path fill="none" stroke="#000" d="m-412.333 101.964 8.29 4.786h8.289l8.29-4.786m-16.58 4.786v4.786m8.29-4.786v4.786" stroke-width=".266"></path><path fill="none" stroke="#000000" d="M-412.333 97.178v9.572l8.29 4.786h8.289l8.29-4.786v-9.572l-8.29-4.786h-8.29z" stroke-width=".532"></path><path fill="#3c3c3c" d="M-412.333 92.01v4.785l8.29 4.786h8.289l8.29-4.786v-4.786l-8.29-4.786h-8.29z" fill-rule="evenodd"></path><path fill="#090909" d="m-395.754 101.58 8.29-4.785v4.786l-8.29 4.786z" fill-rule="evenodd"></path><path fill="#232323" d="M-404.044 101.58h8.29v4.787h-8.29z" fill-rule="evenodd"></path><path fill="#232323" d="M-412.333 96.795v4.786l8.29 4.786v-4.786z" fill-rule="evenodd"></path><path fill="none" stroke="#000" d="m-412.333 96.795 8.29 4.786h8.289l8.29-4.786m-16.58 4.785v4.787m8.29-4.787v4.787" stroke-width=".266"></path><path fill="none" stroke="#000000" d="M-412.333 92.01v9.57l8.29 4.787h8.289l8.29-4.786v-9.572l-8.29-4.786h-8.29z" stroke-width=".532"></path><circle cx="-136.478" cy="325.284" r="5.801" fill="#f4b934" transform="scale(1.22475 .7071) rotate(45)"></circle><g><path fill="#ffffff" d="m-127.434 301.586-.302-.818q-.136-.375-.321-.512-.18-.136-.638-.136h-.545v-1.144h1.007q.887 0 1.364.375.482.375.813 1.26l2.23 5.94h-1.744l-1.085-2.862-1.144 2.862h-1.743z" transform="scale(1.31605 .75985) rotate(45)" font-family="Droid Serif" font-size="9.971"></path></g></g></svg></g></g><g opacity="1"><g id="8a51a016-7b27-4efd-b291-59c48022c8c9" transform="translate(0 0)"><svg x="114" y="381" width="123" height="108.05" viewBox="0 0 32.544 28.588"><path fill="#090909" stroke="#000" d="M10.115 6.02v14.218l7.873-4.317V1.475z" fill-rule="evenodd" stroke-linejoin="round" stroke-width=".268"></path><path fill="#232323" stroke="#000" d="m.265 2.228 9.85 3.792v14.218l-9.85-8.53z" fill-rule="evenodd" stroke-linejoin="round" stroke-width=".265"></path><path fill="#3c3c3c" stroke="#000" d="m10.115 6.02 7.873-4.545L3.548.332.265 2.228z" fill-rule="evenodd" stroke-linejoin="round" stroke-width=".265"></path><path fill="none" stroke="#000000" d="m.265 11.707 9.85 8.531 7.873-4.317V1.475L3.392.271.265 2.077z" stroke-width=".529"></path><path fill="#3c3c3c" stroke="#000" d="m22.429 3.65-8.208 4.74 14.827 10.397 3.231-1.865z" fill-rule="evenodd" stroke-width=".268"></path><path fill="#232323" stroke="#000" d="M14.22 8.391v14.218l14.777 5.687.051-9.509z" fill-rule="evenodd" stroke-width=".265"></path><path fill="#090909" stroke="#000" d="m29.048 18.787 3.231-1.865V26.4l-3.282 1.897z" fill-rule="evenodd" stroke-width=".265"></path><path fill="none" stroke="#000000" d="m22.429 3.65-8.208 4.74v14.22l14.776 5.686 3.282-1.896v-9.478z" stroke-width=".529"></path><path fill="#f4b934" d="M21.09 20.431q.164.374.048.64-.115.264-.44.264-.326 0-.671-.265-.346-.265-.509-.64-.162-.374-.047-.638.115-.265.44-.265.326 0 .672.265.345.264.508.639zm1.573-1.808q.08.183.022.317-.059.134-.218.135-.16 0-.335-.135-.175-.134-.255-.318-.081-.187-.024-.32.058-.132.22-.132.163 0 .336.133.173.132.254.32zm1.573 3.616q.08.184.021.318-.058.134-.218.134t-.335-.134q-.175-.134-.255-.318-.081-.187-.023-.32.057-.132.22-.132t.336.133q.172.132.254.32zm-1.826-1.487-.284-.653q-.016-.036-.052-.069-.036-.033-.065-.037l-.513-.085q-.087-.124-.215-.268.03-.17.1-.407.006-.035-.01-.07-.017-.043-.05-.067-.116-.106-.39-.316-.274-.21-.333-.21-.034 0-.054.024l-.215.318q-.143-.067-.284-.11-.2-.381-.309-.547-.058-.085-.129-.085h-.57q-.035 0-.05.026-.017.027-.005.062l.165.54q-.09.036-.183.11l-.5-.314q-.031-.025-.071-.025-.034 0-.052.029-.238.47-.197.565.014.031.05.067.053.05.208.187t.238.215q-.003.156.018.29l-.43.085q-.029.004-.037.033-.008.03.008.069l.284.654q.015.035.051.068.036.034.066.038l.513.084q.087.124.214.269-.03.17-.1.406-.004.039.01.07.018.043.052.071.114.106.388.315.275.208.334.208.033 0 .053-.025l.215-.317q.132.063.286.113.2.381.307.543.059.085.13.085h.57q.034 0 .05-.026.016-.027.004-.062l-.164-.54q.089-.036.183-.11l.499.314q.035.025.072.025.034 0 .052-.029.238-.47.197-.565-.014-.031-.051-.067l-.212-.19q-.15-.134-.23-.212-.003-.17-.022-.29l.431-.081q.028-.007.037-.037.008-.03-.008-.069zm1.147-1.882-.215-.495q-.024-.056-.505-.11-.078-.095-.172-.183-.017-.4-.055-.487-.006-.014-.023-.025-.484-.25-.49-.25-.025 0-.07.165-.044.166-.055.24-.064-.007-.095-.007-.03 0-.09.007-.074-.074-.263-.24-.19-.166-.214-.166-.006 0-.271.251-.008.01-.002.025.038.088.368.487-.017.088-.012.184-.435.053-.41.11l.215.494q.024.056.505.11.084.102.172.183.017.4.055.487.006.014.023.025l.138.07.234.12q.11.057.117.057.024 0 .07-.164.045-.164.056-.238.064.007.095.007.03 0 .09-.007.265.25.454.395l.021.007q.012 0 .273-.247.008-.01.002-.025-.038-.088-.368-.487.017-.081.012-.184.435-.053.41-.11zm1.573 3.616-.215-.494q-.025-.057-.506-.11-.078-.095-.172-.183-.017-.4-.055-.488-.006-.014-.023-.024-.484-.251-.49-.251-.024 0-.069.166-.044.166-.055.24-.065-.007-.095-.007-.031 0-.09.007-.075-.074-.264-.24-.189-.166-.213-.166-.006 0-.272.25-.008.011-.002.025.038.089.369.488-.017.088-.013.183-.434.053-.41.11l.215.494q.025.057.506.11.084.103.172.184.017.399.055.487.006.014.023.025l.138.07.234.12q.11.057.116.057.025 0 .07-.164.045-.164.056-.238.065.007.096.007.03 0 .089-.007.265.25.454.395l.022.007q.012 0 .273-.247.008-.01.002-.025-.038-.088-.368-.487.017-.081.012-.184.435-.053.41-.11z"></path></svg></g></g><g opacity="1"><g id="412648f6-5002-4b2c-8129-eae6b00972a9" transform="translate(0 0)"><svg x="-153" y="549" width="81" height="93.28" viewBox="0 0 21.431 24.68"><path fill="#ececed" d="m.267 5.103 12.538 7.237 5.224-.603 3.134-9.048-4.18-2.412-15.67 1.81z" fill-rule="evenodd"></path><path fill="#d2d2d4" d="M.267 5.103v12.063l12.538 7.238V12.34zm12.538 7.237 5.224-.603v12.064l-5.224.603z" fill-rule="evenodd"></path><path fill="#b8b8bb" d="m18.029 11.737 3.134-9.048v12.064l-3.134 9.048z" fill-rule="evenodd"></path><path fill="none" stroke="#83838a" d="m.267 5.103 12.538 7.237 5.224-.603 3.134-9.048m-3.134 9.048v12.064M12.805 12.34v12.064" stroke-width=".265"></path><path fill="none" stroke="#000000" d="m.267 17.166 12.538 7.238 5.224-.603 3.134-9.048V2.689L16.983.277l-15.67 1.81L.268 5.102z" stroke-width=".529"></path><path fill="none" d="M16.852 3.319c-.637-.01-1.269-.156-1.755-.437-.487-.28-.739-.645-.757-1.013l-3.498.035c.111.43-.12.884-.694 1.215-.363.21-.812.34-1.281.392-.625.067-1.226.241-1.71.52-1.272.736-1.277 1.926-.013 2.664.734.423 1.146.957 1.248 1.509.956.059 1.88.297 2.613.72 1.279.73 3.34.727 4.613-.008.484-.28.785-.626.903-.987.088-.27.314-.53.678-.74.573-.33 1.359-.464 2.104-.4l.06-2.02c-.636-.01-1.268-.156-1.754-.437-.487-.28-.739-.645-.757-1.013z"></path><path fill="#4286c5" d="M17.277 4.302c.467.27 1.056.427 1.664.471l-.05 1.693c-.73-.014-1.467.14-2.023.462-.404.234-.655.522-.754.824-.107.33-.382.647-.823.902-1.161.672-3.041.674-4.208.007-.722-.417-1.618-.665-2.554-.749-.145-.541-.574-1.06-1.296-1.478-1.152-.675-1.147-1.762.014-2.433.44-.255.988-.414 1.559-.476.521-.057 1.02-.203 1.424-.436.556-.322.823-.748.8-1.17l2.926-.03c.076.352.348.693.815.963.473.274 1.07.432 1.687.474.073.356.346.702.819.976z" fill-rule="evenodd"></path><g><path fill="#ffffff" d="M177.61 45.984h2.004v.43h-1.537v.925q.112-.038.223-.056.11-.02.222-.02.632 0 1.001.346.369.346.369.938 0 .609-.38.948-.378.336-1.068.336-.238 0-.485-.04-.246-.041-.508-.122v-.513q.227.124.47.184.242.061.513.061.437 0 .692-.23.255-.23.255-.624t-.255-.624q-.255-.23-.692-.23-.205 0-.41.045-.202.046-.414.142zm4.837 1.739q.367.078.571.326.208.248.208.612 0 .558-.385.864-.384.306-1.091.306-.238 0-.49-.048-.25-.046-.519-.14v-.492q.212.124.465.187t.528.063q.48 0 .73-.19.254-.189.254-.55 0-.334-.235-.521-.233-.19-.65-.19h-.44v-.42h.46q.377 0 .576-.148.2-.152.2-.435 0-.29-.207-.445-.205-.157-.589-.157-.21 0-.45.046-.24.045-.528.142v-.455q.29-.081.543-.122.256-.04.48-.04.582 0 .92.265.34.263.34.713 0 .313-.18.53-.18.216-.51.299z" transform="scale(1.31486 .76054) rotate(45 142.927 -178.732)" font-family="Interstate" font-size="5.176"></path></g></svg></g></g><g opacity="1"><g id="44ff8745-53ee-4a21-a4f9-94f011714a7c" transform="translate(0 0)"><svg x="-408" y="691" width="63" height="95.068" viewBox="0 0 16.669 25.153"><path fill="#000" stroke="#000000" d="M16.668 22.903q0 1.64-.864 2.09-.865.452-2.296-.375L3.161 18.645q-1.432-.828-2.296-2.276Q.001 14.92 0 13.279q0-.724.042-1.39.042-.667.166-1.394.124-.728.313-1.303.19-.574.51-1.038.32-.464.733-.684.415-.219 1.013-.146.598.073 1.32.489.106.061.497.58.39.52.881 1.166.492.645 1.28 1.394.787.749 1.58 1.206.793.458 1.58.619.788.16 1.279.082.491-.078.882-.147.39-.068.497-.007.722.417 1.32 1.036.598.618 1.012 1.315.414.697.734 1.53.32.834.509 1.627.19.793.314 1.665.124.871.165 1.585.042.714.042 1.439zM12.88 8.509q0 2.173-1.331 2.942-1.332.77-3.214-.317T5.121 7.74Q3.789 5.434 3.789 3.26q0-2.173 1.332-2.942 1.332-.769 3.214.318 1.882 1.086 3.214 3.393 1.331 2.307 1.331 4.48z" stroke-width=".268"></path></svg></g></g></g><g pointer-events="auto"></g><g pointer-events="auto"><g opacity="1"><g id="ac7ca75c-328c-4b9f-84a3-a6d14149d4c8" transform="translate(0 0)"><svg x="-448" y="407" overflow="visible"><g transform="scale(1.4131949617798671) matrix(0.707 0.409 -0.707 0.409 0 0)"><circle cx="0" cy="0" fill="transparent" r="39"></circle><svg width="64" height="64" x="-32" y="-32" style="fill: rgb(255, 255, 255);"><svg xmlns="http://www.w3.org/2000/svg" width="64" height="64" viewBox="0 0 64 64"><defs><linearGradient id="Certificate-Manager_svg__a" x1="0%" x2="100%" y1="100%" y2="0%"><stop offset="0%" stop-color="#BD0816"></stop><stop offset="100%" stop-color="#FF5252"></stop></linearGradient></defs><g fill="none" fill-rule="evenodd"><g fill="url(#Certificate-Manager_svg__a)"><path d="M0 0h64v64H0z"></path></g><path fill="#FFF" d="M28.722 30.981a1 1 0 0 1 .261.877l-.589 3.14 3.092-1.855a.99.99 0 0 1 1.029 0l3.093 1.855-.59-3.146a.996.996 0 0 1 .261-.876l2.661-2.779-3.585-.532a1.004 1.004 0 0 1-.736-.518l-1.627-3.043-1.667 3.054c-.15.274-.419.463-.729.51l-3.539.536 2.665 2.777Zm-2.704 5.834.904-4.82-3.643-3.798a.999.999 0 0 1 .572-1.681l4.955-.752 2.316-4.243c.176-.321.513-.521.878-.521h.004c.367.002.704.205.878.528l2.264 4.232 5.001.743a1 1 0 0 1 .575 1.681l-3.645 3.804.906 4.828a.999.999 0 0 1-1.497 1.041L32 35.166l-4.485 2.691a.994.994 0 0 1-1.086-.036 1 1 0 0 1-.411-1.006ZM12 17.017h39.997V13H12v4.017ZM54 52a.997.997 0 0 1-1 1h-5v-2h4l-.002-31.983H12V51h29v2H11a1 1 0 0 1-1-1V12a1 1 0 0 1 1-1h41.997a1 1 0 0 1 1 1L54 52Zm-35-5h5v-2h-5v2Zm8 0h11v-2H27v2Zm-8-4.003h5v-2h-5v2ZM27 43h18v-2H27v2Z"></path></g></svg></svg></g></svg></g></g></g><g pointer-events="auto"><g opacity="1"><g id="1a2ee3d1-48c2-4067-a0c2-7a07a91af590"><svg x="256" y="481" overflow="visible"><text stroke="#ffffff" stroke-width="4" font-family="Open Sans" y="36.5" font-size="25pt" fill="#000000" font-weight="bold" transform="matrix(0.707 0.409 -0.707 0.409 0 0)" xml:space="preserve"><tspan x="8" dy="0">API Gateway</tspan></text><text font-family="Open Sans" y="36.5" font-size="25pt" fill="#000000" font-weight="bold" transform="matrix(0.707 0.409 -0.707 0.409 0 0)" xml:space="preserve"><tspan x="8" dy="0">API Gateway</tspan></text></svg></g></g><g opacity="1"><g id="866a1d20-d8d4-41df-86ac-95745327a5a2"><svg x="480" y="333" overflow="visible"><text stroke="#ffffff" stroke-width="4" font-family="Open Sans" y="36.5" font-size="25pt" fill="#000000" font-weight="bold" transform="matrix(0.707 0.409 -0.707 0.409 0 0)" xml:space="preserve"><tspan x="8" dy="0">Lambda</tspan></text><text font-family="Open Sans" y="36.5" font-size="25pt" fill="#000000" font-weight="bold" transform="matrix(0.707 0.409 -0.707 0.409 0 0)" xml:space="preserve"><tspan x="8" dy="0">Lambda</tspan></text></svg></g></g><g opacity="1"><g id="64f13ace-9870-4ffe-a5c2-d2eb16d6dce6"><svg x="-48" y="620" overflow="visible"><text stroke="#ffffff" stroke-width="4" font-family="Open Sans" y="36.5" font-size="25pt" fill="#000000" font-weight="bold" transform="matrix(0.707 0.409 -0.707 0.409 0 0)" xml:space="preserve"><tspan x="8" dy="0">Route 53</tspan></text><text font-family="Open Sans" y="36.5" font-size="25pt" fill="#000000" font-weight="bold" transform="matrix(0.707 0.409 -0.707 0.409 0 0)" xml:space="preserve"><tspan x="8" dy="0">Route 53</tspan></text></svg></g></g><g opacity="1"><g id="b696dca4-8090-4495-9a43-4a7865d31e62"><svg x="-528" y="416" overflow="visible"><text stroke="#ffffff" stroke-width="4" font-family="Open Sans" y="36.5" font-size="25pt" fill="#000000" font-weight="bold" transform="matrix(0.707 0.409 -0.707 0.409 0 0)" xml:space="preserve"><tspan x="8" dy="0">Certificate Manager</tspan></text><text font-family="Open Sans" y="36.5" font-size="25pt" fill="#000000" font-weight="bold" transform="matrix(0.707 0.409 -0.707 0.409 0 0)" xml:space="preserve"><tspan x="8" dy="0">Certificate Manager</tspan></text></svg></g></g></g></g></svg>